<svg width="51" height="50" viewBox="0 0 51 50" fill="none" xmlns="http://www.w3.org/2000/svg">
<path d="M17.1667 11.9792C16.3125 11.9792 15.6042 11.2709 15.6042 10.4167V4.16675C15.6042 3.31258 16.3125 2.60425 17.1667 2.60425C18.0208 2.60425 18.7292 3.31258 18.7292 4.16675V10.4167C18.7292 11.2709 18.0208 11.9792 17.1667 11.9792Z" fill="#CF3614"/>
<path d="M33.8333 11.9792C32.9792 11.9792 32.2708 11.2709 32.2708 10.4167V4.16675C32.2708 3.31258 32.9792 2.60425 33.8333 2.60425C34.6875 2.60425 35.3958 3.31258 35.3958 4.16675V10.4167C35.3958 11.2709 34.6875 11.9792 33.8333 11.9792Z" fill="#CF3614"/>
<path d="M18.2083 30.2082C17.6667 30.2082 17.125 29.979 16.7292 29.604C16.3542 29.2082 16.125 28.6874 16.125 28.1249C16.125 27.8541 16.1875 27.5832 16.2917 27.3332C16.3958 27.0832 16.5417 26.8541 16.7292 26.6458C17.5 25.8749 18.8958 25.8749 19.6875 26.6458C20.0625 27.0416 20.2917 27.5832 20.2917 28.1249C20.2917 28.2499 20.2708 28.3958 20.25 28.5416C20.2292 28.6666 20.1875 28.7916 20.125 28.9166C20.0833 29.0416 20.0208 29.1666 19.9375 29.2916C19.8542 29.3957 19.7708 29.4999 19.6875 29.604C19.2917 29.979 18.75 30.2082 18.2083 30.2082Z" fill="#CF3614"/>
<path d="M25.5 30.2083C25.2292 30.2083 24.9583 30.1459 24.7083 30.0417C24.4375 29.9375 24.2292 29.7916 24.0208 29.6041C23.6458 29.2083 23.4167 28.6875 23.4167 28.125C23.4167 27.8542 23.4792 27.5833 23.5833 27.3333C23.6875 27.0833 23.8333 26.8542 24.0208 26.6458C24.2292 26.4583 24.4375 26.3125 24.7083 26.2083C25.4792 25.8958 26.3958 26.0625 26.9792 26.6458C27.3542 27.0417 27.5833 27.5833 27.5833 28.125C27.5833 28.25 27.5625 28.3959 27.5417 28.5417C27.5208 28.6667 27.4792 28.7917 27.4167 28.9167C27.375 29.0417 27.3125 29.1667 27.2292 29.2917C27.1667 29.3958 27.0625 29.5 26.9792 29.6041C26.5833 29.9791 26.0417 30.2083 25.5 30.2083Z" fill="#CF3614"/>
<path d="M18.2083 37.5001C17.9375 37.5001 17.6667 37.4377 17.4167 37.3335C17.1458 37.2293 16.9167 37.0834 16.7292 36.8959C16.5417 36.7084 16.3958 36.4793 16.2917 36.2085C16.1875 35.9585 16.125 35.6876 16.125 35.4168C16.125 35.146 16.1875 34.8751 16.2917 34.6251C16.3958 34.3543 16.5417 34.1251 16.7292 33.9376C16.9167 33.7501 17.1458 33.6043 17.4167 33.5001C17.9167 33.2918 18.5 33.2709 19 33.5001C19.2708 33.6043 19.5 33.7501 19.6875 33.9376C19.875 34.1251 20.0208 34.3543 20.125 34.6251C20.2292 34.8751 20.2917 35.146 20.2917 35.4168C20.2917 35.6876 20.2292 35.9585 20.125 36.2085C20.0208 36.4793 19.875 36.7084 19.6875 36.8959C19.5 37.0834 19.2708 37.2293 19 37.3335C18.75 37.4377 18.4792 37.5001 18.2083 37.5001Z" fill="#CF3614"/>
<path d="M43.2083 20.5H7.79167C6.9375 20.5 6.22917 19.7917 6.22917 18.9375C6.22917 18.0833 6.9375 17.375 7.79167 17.375H43.2083C44.0625 17.375 44.7708 18.0833 44.7708 18.9375C44.7708 19.7917 44.0625 20.5 43.2083 20.5Z" fill="#CF3614"/>
<path d="M38 49.4792C35.5625 49.4792 33.25 48.6042 31.4792 47C30.7292 46.375 30.0625 45.5833 29.5208 44.6667C28.6042 43.1667 28.1042 41.3958 28.1042 39.5833C28.1042 34.125 32.5417 29.6875 38 29.6875C40.8333 29.6875 43.5417 30.9166 45.4167 33.0416C47.0208 34.875 47.8958 37.1875 47.8958 39.5833C47.8958 41.3958 47.3958 43.1667 46.4583 44.6875C44.7083 47.6459 41.4583 49.4792 38 49.4792ZM38 32.8125C34.2708 32.8125 31.2292 35.8542 31.2292 39.5833C31.2292 40.8125 31.5625 42.0209 32.2083 43.0625C32.5625 43.6875 33.0208 44.2083 33.5208 44.6458C34.7708 45.7708 36.3333 46.3542 38 46.3542C40.3958 46.3542 42.5625 45.125 43.7917 43.0833C44.4375 42.0208 44.7708 40.8333 44.7708 39.5833C44.7708 37.9583 44.1667 36.375 43.0833 35.1042C41.7917 33.6458 39.9375 32.8125 38 32.8125Z" fill="#CF3614"/>
<path d="M36.8123 43.2083C36.4164 43.2083 36.0206 43.0625 35.7081 42.75L33.6456 40.6875C33.0414 40.0833 33.0414 39.0833 33.6456 38.4792C34.2498 37.875 35.2498 37.875 35.8539 38.4792L36.8539 39.4792L40.1873 36.3958C40.8123 35.8125 41.8123 35.8542 42.3956 36.4792C42.9789 37.1042 42.9373 38.1042 42.3123 38.6875L37.8748 42.7917C37.5623 43.0625 37.1873 43.2083 36.8123 43.2083Z" fill="#CF3614"/>
<path d="M32.5208 47.3959H17.1667C9.5625 47.3959 5.1875 43.0209 5.1875 35.4167V17.7084C5.1875 10.1042 9.5625 5.72925 17.1667 5.72925H33.8333C41.4375 5.72925 45.8125 10.1042 45.8125 17.7084V34.0834C45.8125 34.7292 45.4167 35.3126 44.7917 35.5417C44.1875 35.7709 43.5 35.6043 43.0625 35.1043C41.7708 33.6459 39.9167 32.8126 37.9792 32.8126C34.25 32.8126 31.2083 35.8542 31.2083 39.5834C31.2083 40.8126 31.5417 42.0209 32.1875 43.0626C32.5417 43.6876 33 44.2084 33.5 44.6459C34 45.0626 34.1875 45.7501 33.9583 46.3751C33.7708 46.9793 33.1875 47.3959 32.5208 47.3959ZM17.1667 8.85425C11.2083 8.85425 8.3125 11.7501 8.3125 17.7084V35.4167C8.3125 41.3751 11.2083 44.2709 17.1667 44.2709H29.2917C28.5208 42.8543 28.1042 41.2501 28.1042 39.5834C28.1042 34.1251 32.5417 29.6876 38 29.6876C39.6458 29.6876 41.2708 30.1043 42.6875 30.8751V17.7084C42.6875 11.7501 39.7917 8.85425 33.8333 8.85425H17.1667Z" fill="#CF3614"/>
</svg>
