<svg width="51" height="50" viewBox="0 0 51 50" fill="none" xmlns="http://www.w3.org/2000/svg">
<path d="M18.3537 33.375C17.9578 33.375 17.562 33.2291 17.2495 32.9166C16.6453 32.3125 16.6453 31.3125 17.2495 30.7083L30.8953 17.0625C31.4995 16.4583 32.4995 16.4583 33.1036 17.0625C33.7078 17.6667 33.7078 18.6667 33.1036 19.2708L19.4578 32.9166C19.1453 33.2291 18.7495 33.375 18.3537 33.375Z" fill="#CF3614"/>
<path d="M19.2084 23.146C16.9375 23.146 15.0833 21.2919 15.0833 19.021C15.0833 16.7502 16.9375 14.896 19.2084 14.896C21.4792 14.896 23.3333 16.7502 23.3333 19.021C23.3333 21.2919 21.4792 23.146 19.2084 23.146ZM19.2084 18.0418C18.6667 18.0418 18.2083 18.4794 18.2083 19.0419C18.2083 19.6044 18.6459 20.0418 19.2084 20.0418C19.7709 20.0418 20.2083 19.6044 20.2083 19.0419C20.2083 18.4794 19.75 18.0418 19.2084 18.0418Z" fill="#CF3614"/>
<path d="M32.8334 35.0832C30.5625 35.0832 28.7084 33.229 28.7084 30.9582C28.7084 28.6874 30.5625 26.8333 32.8334 26.8333C35.1042 26.8333 36.9584 28.6874 36.9584 30.9582C36.9584 33.229 35.1042 35.0832 32.8334 35.0832ZM32.8334 29.9791C32.2917 29.9791 31.8334 30.4166 31.8334 30.9791C31.8334 31.5416 32.2709 31.9791 32.8334 31.9791C33.3959 31.9791 33.8334 31.5416 33.8334 30.9791C33.8334 30.4166 33.3959 29.9791 32.8334 29.9791Z" fill="#CF3614"/>
<path d="M25.5 47.3959C13.1458 47.3959 3.10416 37.3543 3.10416 25.0001C3.10416 12.6459 13.1458 2.60425 25.5 2.60425C37.8542 2.60425 47.8958 12.6459 47.8958 25.0001C47.8958 37.3543 37.8542 47.3959 25.5 47.3959ZM25.5 5.72925C14.875 5.72925 6.22916 14.3751 6.22916 25.0001C6.22916 35.6251 14.875 44.2709 25.5 44.2709C36.125 44.2709 44.7708 35.6251 44.7708 25.0001C44.7708 14.3751 36.125 5.72925 25.5 5.72925Z" fill="#CF3614"/>
</svg>
