<svg width="50" height="51" viewBox="0 0 50 51" fill="none" xmlns="http://www.w3.org/2000/svg">
<circle cx="25" cy="25.5" r="25" fill="#484846"/>
<path d="M19.0559 35.474V32.744L27.0639 25.607C27.6879 25.0523 28.1212 24.528 28.3639 24.034C28.6065 23.54 28.7279 23.0633 28.7279 22.604C28.7279 21.98 28.5935 21.4253 28.3249 20.94C28.0562 20.446 27.6835 20.056 27.2069 19.77C26.7389 19.484 26.1972 19.341 25.5819 19.341C24.9319 19.341 24.3555 19.4927 23.8529 19.796C23.3589 20.0907 22.9732 20.485 22.6959 20.979C22.4185 21.473 22.2885 22.006 22.3059 22.578H19.0819C19.0819 21.33 19.3592 20.2423 19.9139 19.315C20.4772 18.3877 21.2485 17.6683 22.2279 17.157C23.2159 16.6457 24.3555 16.39 25.6469 16.39C26.8429 16.39 27.9175 16.6587 28.8709 17.196C29.8242 17.7247 30.5739 18.4613 31.1199 19.406C31.6659 20.342 31.9389 21.421 31.9389 22.643C31.9389 23.5357 31.8175 24.2853 31.5749 24.892C31.3322 25.4987 30.9682 26.0577 30.4829 26.569C30.0062 27.0803 29.4125 27.648 28.7019 28.272L23.0209 33.303L22.7349 32.523H31.9389V35.474H19.0559Z" fill="white"/>
</svg>
