<svg width="50" height="51" viewBox="0 0 50 51" fill="none" xmlns="http://www.w3.org/2000/svg">
<circle cx="25" cy="25.5" r="25" fill="#484846"/>
<path d="M25.2538 35.89C24.3005 35.89 23.4121 35.695 22.5888 35.305C21.7655 34.9063 21.0548 34.3603 20.4568 33.667C19.8675 32.9737 19.4428 32.1677 19.1828 31.249L22.1988 30.443C22.3201 30.9457 22.5411 31.379 22.8618 31.743C23.1911 32.107 23.5725 32.3887 24.0058 32.588C24.4478 32.7873 24.9028 32.887 25.3708 32.887C25.9775 32.887 26.5321 32.7397 27.0348 32.445C27.5375 32.1503 27.9361 31.756 28.2308 31.262C28.5255 30.7593 28.6728 30.2047 28.6728 29.598C28.6728 28.9913 28.5211 28.441 28.2178 27.947C27.9231 27.4443 27.5245 27.05 27.0218 26.764C26.5191 26.4693 25.9688 26.322 25.3708 26.322C24.6515 26.322 24.0535 26.452 23.5768 26.712C23.1088 26.972 22.7491 27.2493 22.4978 27.544L19.8198 26.686L20.3918 16.78H30.5578V19.718H22.0688L23.2388 18.613L22.8228 25.503L22.2508 24.801C22.7361 24.359 23.2995 24.0297 23.9408 23.813C24.5821 23.5963 25.2018 23.488 25.7998 23.488C26.9698 23.488 28.0055 23.7567 28.9068 24.294C29.8168 24.8227 30.5275 25.5463 31.0388 26.465C31.5588 27.3837 31.8188 28.428 31.8188 29.598C31.8188 30.768 31.5155 31.8297 30.9088 32.783C30.3021 33.7277 29.5005 34.4817 28.5038 35.045C27.5158 35.6083 26.4325 35.89 25.2538 35.89Z" fill="white"/>
</svg>
