<svg width="18" height="16" viewBox="0 0 18 16" fill="none" xmlns="http://www.w3.org/2000/svg">
<path d="M17.0703 0.47653C16.8969 0.329598 16.6869 0.232396 16.4627 0.195254C16.2385 0.158112 16.0084 0.18242 15.7969 0.265592L1.37498 5.92965C1.12203 6.02603 0.907762 6.20288 0.765183 6.43299C0.622604 6.66309 0.559617 6.93368 0.585921 7.20309C0.609388 7.4724 0.719526 7.72684 0.899821 7.92827C1.08012 8.12969 1.32085 8.26723 1.58592 8.32028L5.24998 9.04684V13.625C5.24985 13.8726 5.3233 14.1148 5.461 14.3206C5.5987 14.5265 5.79446 14.6868 6.02342 14.7812C6.17495 14.8422 6.33664 14.874 6.49998 14.875C6.66416 14.8755 6.8268 14.8434 6.97839 14.7803C7.12997 14.7173 7.26746 14.6246 7.3828 14.5078L9.41405 12.4843L12.4844 15.1875C12.711 15.3874 13.0024 15.4984 13.3047 15.5C13.4376 15.5027 13.5699 15.4815 13.6953 15.4375C13.9015 15.3722 14.087 15.2543 14.2336 15.0954C14.3802 14.9364 14.4828 14.742 14.5312 14.5312L17.4687 1.70309C17.5201 1.48174 17.5101 1.25057 17.4399 1.03446C17.3697 0.818345 17.2419 0.625454 17.0703 0.47653ZM5.72655 7.86716L1.83592 7.09372L12.7422 2.80465L5.72655 7.86716ZM6.49998 13.625V9.92184L8.46873 11.6562L6.49998 13.625ZM13.3125 14.25L6.87498 8.58591L16.1484 1.89059L13.3125 14.25Z" fill="white"/>
</svg>
