<svg width="41" height="40" viewBox="0 0 41 40" fill="none" xmlns="http://www.w3.org/2000/svg">
<path d="M14.152 19.3911L17.3248 16.2171C17.3821 16.1618 17.4278 16.0956 17.4592 16.0224C17.4907 15.9492 17.5072 15.8704 17.5079 15.7908C17.5086 15.7111 17.4934 15.6321 17.4633 15.5583C17.4331 15.4846 17.3885 15.4176 17.3322 15.3613C17.2759 15.3049 17.2089 15.2604 17.1351 15.2302C17.0614 15.2001 16.9824 15.1849 16.9027 15.1856C16.8231 15.1863 16.7443 15.2028 16.6711 15.2343C16.5979 15.2657 16.5317 15.3114 16.4764 15.3687L12.316 19.5303C12.2483 19.5865 12.1939 19.657 12.1566 19.7366C12.1193 19.8163 12.0999 19.9032 12.1 19.9911V19.9923C12.1 20.0712 12.1156 20.1494 12.1459 20.2223C12.1761 20.2952 12.2205 20.3614 12.2764 20.4171L12.2884 20.4291L16.4764 24.6171C16.5317 24.6744 16.5979 24.7201 16.6711 24.7516C16.7443 24.783 16.8231 24.7996 16.9027 24.8003C16.9824 24.801 17.0614 24.7858 17.1351 24.7556C17.2089 24.7254 17.2759 24.6809 17.3322 24.6246C17.3885 24.5682 17.4331 24.5012 17.4633 24.4275C17.4934 24.3538 17.5086 24.2747 17.5079 24.1951C17.5072 24.1154 17.4907 24.0367 17.4592 23.9635C17.4278 23.8903 17.3821 23.8241 17.3248 23.7687L14.146 20.5911H28.3C28.4591 20.5911 28.6117 20.5279 28.7242 20.4154C28.8368 20.3029 28.9 20.1502 28.9 19.9911C28.9 19.832 28.8368 19.6794 28.7242 19.5669C28.6117 19.4543 28.4591 19.3911 28.3 19.3911H14.152Z" fill="#9C9C9C"/>
<circle cx="20.5" cy="20" r="19.25" transform="rotate(-180 20.5 20)" stroke="#9C9C9C" stroke-width="1.5"/>
</svg>
