<svg width="41" height="40" viewBox="0 0 41 40" fill="none" xmlns="http://www.w3.org/2000/svg">
<path d="M26.848 20.6089L23.6752 23.7829C23.6179 23.8382 23.5722 23.9044 23.5408 23.9776C23.5093 24.0508 23.4928 24.1296 23.4921 24.2092C23.4914 24.2889 23.5066 24.3679 23.5367 24.4417C23.5669 24.5154 23.6115 24.5824 23.6678 24.6387C23.7241 24.6951 23.7911 24.7396 23.8649 24.7698C23.9386 24.7999 24.0176 24.8151 24.0973 24.8144C24.1769 24.8137 24.2557 24.7972 24.3289 24.7657C24.4021 24.7343 24.4683 24.6886 24.5236 24.6313L28.684 20.4697C28.7517 20.4135 28.8061 20.343 28.8434 20.2634C28.8807 20.1837 28.9001 20.0968 28.9 20.0089V20.0077C28.9 19.9288 28.8844 19.8506 28.8541 19.7777C28.8239 19.7048 28.7795 19.6386 28.7236 19.5829L28.7116 19.5709L24.5236 15.3829C24.4683 15.3256 24.4021 15.2799 24.3289 15.2484C24.2557 15.217 24.1769 15.2004 24.0973 15.1997C24.0176 15.199 23.9386 15.2142 23.8649 15.2444C23.7911 15.2746 23.7241 15.3191 23.6678 15.3754C23.6115 15.4318 23.5669 15.4988 23.5367 15.5725C23.5066 15.6462 23.4914 15.7253 23.4921 15.8049C23.4928 15.8846 23.5093 15.9633 23.5408 16.0365C23.5722 16.1097 23.6179 16.1759 23.6752 16.2313L26.854 19.4089H12.7C12.5409 19.4089 12.3883 19.4721 12.2758 19.5846C12.1632 19.6971 12.1 19.8498 12.1 20.0089C12.1 20.168 12.1632 20.3206 12.2758 20.4331C12.3883 20.5457 12.5409 20.6089 12.7 20.6089H26.848Z" fill="#912108"/>
<circle cx="20.5" cy="20" r="19.25" stroke="#912108" stroke-width="1.5"/>
</svg>
