<svg width="150" height="45" viewBox="0 0 150 45" fill="none" xmlns="http://www.w3.org/2000/svg">
<path fill-rule="evenodd" clip-rule="evenodd" d="M112.314 4.50233L133.776 44.8134H135.017L150 11.944H145.085L134.468 35.2255L114.904 0H109.917L109.93 0.0233281H0V4.50233H112.314ZM1.74747e-05 44.5801V11.944H4.77177V26.6174L18.7053 11.944H24.7177L10.2116 27.2473L27.5092 44.5801H20.8526L4.77177 28.437V44.5801H1.74747e-05ZM42.4925 41.944C41.395 42.9705 40.2975 43.7247 39.1999 44.2068C38.1184 44.6734 36.9493 44.9067 35.6927 44.9067C33.2909 44.9067 31.3981 44.2302 30.0143 42.8771C28.6305 41.5241 27.9386 39.6734 27.9386 37.325V23.0249H32.3763V36.2286C32.3763 37.9705 32.7501 39.2613 33.4977 40.1011C34.2612 40.9254 35.4382 41.3375 37.0288 41.3375C38.1581 41.3375 39.1443 41.1275 39.9873 40.7076C40.8462 40.2722 41.6813 39.5568 42.4925 38.5614V23.0249H46.8825V44.5801H42.4925V41.944ZM52.6086 11.944V44.5801H56.9986V11.944H52.6086ZM62.6292 16.6796C62.6292 15.9953 62.8678 15.4199 63.345 14.9533C63.8222 14.4868 64.4107 14.2535 65.1105 14.2535C65.8104 14.2535 66.3989 14.4868 66.8761 14.9533C67.3533 15.4199 67.5919 15.9953 67.5919 16.6796C67.5919 17.3639 67.3533 17.9393 66.8761 18.4059C66.3989 18.8725 65.8104 19.1058 65.1105 19.1058C64.4107 19.1058 63.8222 18.8725 63.345 18.4059C62.8678 17.9393 62.6292 17.3639 62.6292 16.6796ZM62.9155 44.5801V23.0249H67.3056V44.5801H62.9155ZM83.4341 32.8694L92.6674 23.0249H87.2515L77.7557 33.1026L88.516 44.5801H94.5284L83.4341 32.8694ZM73.2225 11.944V44.5801H77.6125V11.944H73.2225ZM99.8728 33.7792C99.8728 35.7854 100.565 37.4961 101.948 38.9114C103.332 40.3266 105.002 41.0342 106.959 41.0342C108.899 41.0342 110.561 40.3266 111.945 38.9114C113.345 37.4806 114.045 35.7698 114.045 33.7792C114.045 31.804 113.353 30.1089 111.969 28.6936C110.585 27.2784 108.915 26.5708 106.959 26.5708C105.002 26.5708 103.332 27.2784 101.948 28.6936C100.565 30.1089 99.8728 31.804 99.8728 33.7792ZM95.268 33.7792C95.268 30.6532 96.4053 28.0016 98.6798 25.8243C100.954 23.647 103.73 22.5583 107.007 22.5583C108.549 22.5583 110.021 22.846 111.42 23.4215C112.836 23.9813 114.101 24.79 115.214 25.8476C116.343 26.9673 117.202 28.196 117.791 29.5334C118.379 30.8709 118.673 32.2862 118.673 33.7792C118.673 35.2566 118.371 36.6952 117.767 38.0949C117.162 39.4946 116.311 40.7154 115.214 41.7574C114.101 42.8305 112.844 43.6392 111.444 44.1835C110.06 44.7278 108.581 45 107.007 45C103.73 45 100.954 43.9114 98.6798 41.7341C96.4053 39.5568 95.268 36.9051 95.268 33.7792Z" fill="white"/>
</svg>
