<svg width="50" height="51" viewBox="0 0 50 51" fill="none" xmlns="http://www.w3.org/2000/svg">
<circle cx="25" cy="25.5" r="25" fill="#484846"/>
<path d="M25.1223 35.851C24.1863 35.851 23.3023 35.669 22.4703 35.305C21.6383 34.941 20.9146 34.4253 20.2993 33.758C19.6926 33.0907 19.255 32.302 18.9863 31.392L22.0153 30.573C22.232 31.3183 22.6263 31.8947 23.1983 32.302C23.779 32.7007 24.416 32.8957 25.1093 32.887C25.7246 32.887 26.275 32.744 26.7603 32.458C27.2456 32.172 27.627 31.7863 27.9043 31.301C28.1816 30.807 28.3203 30.2567 28.3203 29.65C28.3203 28.7227 28.0213 27.947 27.4233 27.323C26.8253 26.699 26.054 26.387 25.1093 26.387C24.8233 26.387 24.5416 26.426 24.2643 26.504C23.9956 26.582 23.7356 26.6903 23.4843 26.829L22.0543 24.359L28.3463 18.977L28.6193 19.731H19.7143V16.78H31.1933V19.744L26.1363 24.606L26.1103 23.683C27.2456 23.761 28.212 24.0773 29.0093 24.632C29.8153 25.1867 30.4306 25.9017 30.8553 26.777C31.2886 27.6523 31.5053 28.61 31.5053 29.65C31.5053 30.8287 31.215 31.886 30.6343 32.822C30.0623 33.758 29.291 34.499 28.3203 35.045C27.3583 35.5823 26.2923 35.851 25.1223 35.851Z" fill="white"/>
</svg>
