<svg width="51" height="50" viewBox="0 0 51 50" fill="none" xmlns="http://www.w3.org/2000/svg">
<path d="M22.9792 31.6042C22.5625 31.6042 22.1667 31.4375 21.875 31.1458L16.8333 26.1042C16.2292 25.5 16.2292 24.5 16.8333 23.8958C17.4375 23.2917 18.4375 23.2917 19.0417 23.8958L22.9792 27.8333L31.9375 18.875C32.5417 18.2708 33.5417 18.2708 34.1458 18.875C34.75 19.4792 34.75 20.4792 34.1458 21.0833L24.0833 31.1458C23.7917 31.4375 23.3958 31.6042 22.9792 31.6042Z" fill="#CF3614"/>
<path d="M25.5 47.3959C24.1875 47.3959 22.875 46.9584 21.8542 46.0834L18.5625 43.2501C18.2292 42.9584 17.3958 42.6668 16.9583 42.6668H13.375C10.2917 42.6668 7.79168 40.1667 7.79168 37.0834V33.5209C7.79168 33.0834 7.50001 32.2709 7.20834 31.9376L4.39584 28.6251C2.68751 26.6042 2.68751 23.4167 4.39584 21.3959L7.20834 18.0834C7.50001 17.7501 7.79168 16.9376 7.79168 16.5001V12.9167C7.79168 9.83342 10.2917 7.33342 13.375 7.33342H16.9792C17.4167 7.33342 18.25 7.02092 18.5833 6.75008L21.875 3.91675C23.9167 2.16675 27.1042 2.16675 29.1458 3.91675L32.4375 6.75008C32.7708 7.04175 33.6042 7.33342 34.0417 7.33342H37.5833C40.6667 7.33342 43.1667 9.83342 43.1667 12.9167V16.4584C43.1667 16.8959 43.4792 17.7292 43.7709 18.0626L46.6042 21.3542C48.3542 23.3959 48.3542 26.5834 46.6042 28.6251L43.7709 31.9167C43.4792 32.2501 43.1667 33.0834 43.1667 33.5209V37.0626C43.1667 40.1459 40.6667 42.6459 37.5833 42.6459H34.0417C33.6042 42.6459 32.7708 42.9584 32.4375 43.2293L29.1458 46.0626C28.125 46.9584 26.8125 47.3959 25.5 47.3959ZM13.375 10.4584C12.0208 10.4584 10.9167 11.5626 10.9167 12.9167V16.4792C10.9167 17.6667 10.3542 19.1876 9.58334 20.0834L6.77084 23.3959C6.04168 24.2501 6.04168 25.7292 6.77084 26.5834L9.58334 29.8959C10.3542 30.8126 10.9167 32.3126 10.9167 33.5001V37.0626C10.9167 38.4168 12.0208 39.5209 13.375 39.5209H16.9792C18.1875 39.5209 19.7083 40.0834 20.625 40.8751L23.9167 43.7084C24.7708 44.4376 26.2708 44.4376 27.125 43.7084L30.4167 40.8751C31.3333 40.1043 32.8542 39.5209 34.0625 39.5209H37.6042C38.9583 39.5209 40.0625 38.4168 40.0625 37.0626V33.5209C40.0625 32.3126 40.625 30.7917 41.4167 29.8751L44.25 26.5834C44.9792 25.7292 44.9792 24.2292 44.25 23.3751L41.4167 20.0834C40.625 19.1667 40.0625 17.6459 40.0625 16.4376V12.9167C40.0625 11.5626 38.9583 10.4584 37.6042 10.4584H34.0625C32.8542 10.4584 31.3333 9.89592 30.4167 9.10425L27.125 6.27092C26.2708 5.54175 24.7708 5.54175 23.9167 6.27092L20.625 9.12508C19.7083 9.89592 18.1667 10.4584 16.9792 10.4584H13.375Z" fill="#CF3614"/>
</svg>
